<svg xmlns="http://www.w3.org/2000/svg" width="150" height="31.61"><g data-name="レイヤー 2"><g data-name="レイヤー 1"><path d="M.94 0A.94.94 0 000 .94v10.83a4.13 4.13 0 004.12 4 4.12 4.12 0 00-4.12 4v10.9a.94.94 0 00.94.94h29.73a.94.94 0 00.94-.94V19.85a4.12 4.12 0 014.12-4 4.13 4.13 0 01-4.12-4.06V.94a.94.94 0 00-.94-.94z" fill="#002878"/><path d="M66.69 10.61h4.44V27.7h-4.44zm0-7.1h4.44v3.71h-4.44zM79.6 27.7h5l6.3-17.09h-4.43l-4.12 12.44h-.06L78 10.61h-4.74zM103 17.48c-.13-2.16-1.13-4-3.62-4s-3.75 1.73-3.94 4zm3 9.26a11.74 11.74 0 01-5.87 1.36c-5.64 0-8.92-3.25-8.92-8.86 0-4.95 2.62-9 7.93-9 6.33 0 8.13 4.35 8.13 10.32H95.44c.19 2.76 2.12 4.32 4.87 4.32a11.5 11.5 0 005.69-1.76zm-46.76-7.8c0-3.27-1.65-5.48-4.14-5.48s-3.49 1.86-3.63 4h-4c.6-4.35 2.74-7.27 7.94-7.27s7.93 4.08 7.93 9c0 5.61-3.28 8.86-8.92 8.86a11.81 11.81 0 01-5.88-1.36v-3.57a11.54 11.54 0 005.68 1.73c2.87 0 5.02-1.85 5.02-5.91zM47.42 3.51h14.92v3.7H47.42zm66.49 7.1h3.43v17.1h-3.43zm6.81 4.48h3.11v1.71a4.72 4.72 0 014.14-2c3 0 4.29 2.1 4.29 4.95v8H129V21c0-1.54 0-3.63-2.14-3.63-2.37 0-2.89 2.58-2.89 4.19v6.18h-3.28zm23.15 2.72a4.9 4.9 0 00-2.23-.47c-2 0-3.33 1.62-3.33 4s1.11 4.11 3.41 4.11a7 7 0 002.52-.58l.15 2.71a10.54 10.54 0 01-3.28.42c-4.14 0-6.23-2.82-6.23-6.66 0-3.65 2.16-6.54 6.1-6.54a10.71 10.71 0 013.19.41zm2.7 6.47H150v3.43h-3.43z"/></g></g></svg>