<svg xmlns="http://www.w3.org/2000/svg" width="150" height="31.61" viewBox="0 0 150 31.61"><defs><style>.cls-1{fill:#002878;}</style></defs><title>アセット 1</title><g id="レイヤー_2" data-name="レイヤー 2"><g id="レイヤー_1-2" data-name="レイヤー 1"><path class="cls-1" d="M.94,0A.94.94,0,0,0,0,.94V11.77a4.13,4.13,0,0,0,4.12,4,4.12,4.12,0,0,0-4.12,4V30.67a.94.94,0,0,0,.94.94H30.67a.94.94,0,0,0,.94-.94V19.85a4.12,4.12,0,0,1,4.12-4,4.13,4.13,0,0,1-4.12-4.06V.94A.94.94,0,0,0,30.67,0Z"/><path d="M66.69,10.61h4.44V27.7H66.69Zm0-7.1h4.44V7.22H66.69Z"/><path d="M79.6,27.7h5l6.3-17.09H86.47L82.35,23.05h-.06L78,10.61H73.26Z"/><path d="M103,17.48c-.13-2.16-1.13-4-3.62-4s-3.75,1.73-3.94,4Zm3,9.26a11.74,11.74,0,0,1-5.87,1.36c-5.64,0-8.92-3.25-8.92-8.86,0-4.95,2.62-9,7.93-9,6.33,0,8.13,4.35,8.13,10.32H95.44c.19,2.76,2.12,4.32,4.87,4.32A11.5,11.5,0,0,0,106,23.12Z"/><path d="M59.24,18.94c0-3.27-1.65-5.48-4.14-5.48s-3.49,1.86-3.63,4h-4c.6-4.35,2.74-7.27,7.94-7.27s7.93,4.08,7.93,9c0,5.61-3.28,8.86-8.92,8.86a11.81,11.81,0,0,1-5.88-1.36V23.12a11.54,11.54,0,0,0,5.68,1.73C57.09,24.85,59.24,23,59.24,18.94Z"/><rect x="47.42" y="3.51" width="14.92" height="3.7"/><path d="M113.91,10.61h3.43v17.1h-3.43Z"/><path d="M120.72,15.09h3.11V16.8h0a4.72,4.72,0,0,1,4.14-2c3,0,4.29,2.1,4.29,4.95v8H129V21c0-1.54,0-3.63-2.14-3.63-2.37,0-2.89,2.58-2.89,4.19v6.18h-3.28Z"/><path d="M143.87,17.81a4.9,4.9,0,0,0-2.23-.47c-2,0-3.33,1.62-3.33,4s1.11,4.11,3.41,4.11a7,7,0,0,0,2.52-.58l.15,2.71a10.54,10.54,0,0,1-3.28.42c-4.14,0-6.23-2.82-6.23-6.66,0-3.65,2.16-6.54,6.1-6.54a10.71,10.71,0,0,1,3.19.41Z"/><path d="M146.57,24.28H150v3.43h-3.43Z"/></g></g></svg>